<svg id="Layer_1" data-name="Layer 1" xmlns="http://www.w3.org/2000/svg" viewBox="0 0 247.4 221.3"><defs><style>.cls-1{fill:#fff;}</style></defs><title>cart</title><g id="cart"><path class="cls-1" d="M158.3,168.6a26.4,26.4,0,1,0,26.4,26.3A26.4,26.4,0,0,0,158.3,168.6Zm0,39.5a13.2,13.2,0,1,1,13.2-13.2A13.2,13.2,0,0,1,158.3,208.1Z"/><path class="cls-1" d="M92.3,168.6a26.4,26.4,0,1,0,26.4,26.3A26.4,26.4,0,0,0,92.3,168.6Zm0,39.5a13.2,13.2,0,1,1,13.2-13.2A13.2,13.2,0,0,1,92.3,208.1Z"/><path class="cls-1" d="M207.4,50.8A19.6,19.6,0,0,0,191.8,43H43.2L32.5,14.3A6.5,6.5,0,0,0,26.3,10H6.8A6.7,6.7,0,0,0,0,15.7,6.6,6.6,0,0,0,6.5,23H21.7L65.9,142.1A19.2,19.2,0,0,0,84.1,155h82.4a19.2,19.2,0,0,0,18.2-12.9L210,68A18.9,18.9,0,0,0,207.4,50.8Zm-9.6,12.8L172.4,138a6.1,6.1,0,0,1-5.8,4H84a6.3,6.3,0,0,1-5.9-4.1L47.8,56H192a6.2,6.2,0,0,1,5,2.5A5.4,5.4,0,0,1,197.8,63.6Z"/></g></svg>