<svg id="Layer_1" data-name="Layer 1" xmlns="http://www.w3.org/2000/svg" viewBox="0 0 221.3 221.3"><defs><style>.cls-1{fill:#e9ab21;}</style></defs><title>main_gurantee</title><g id="check_star" data-name="check star"><path class="cls-1" d="M214.4,97.6,198.6,87.1l8.5-17A15.7,15.7,0,0,0,194,47.6l-18.9-1.3-1.2-18.8A15.6,15.6,0,0,0,166,14.8a16.1,16.1,0,0,0-14.8-.4l-16.9,8.4L123.8,7A15.8,15.8,0,0,0,97.6,7L87.1,22.8,70.2,14.4a16.3,16.3,0,0,0-14.9.4,15.5,15.5,0,0,0-7.7,12.6L46.4,46.3,27.5,47.6A15.6,15.6,0,0,0,14.4,70.2l8.4,16.9L7,97.6a15.8,15.8,0,0,0,0,26.2l15.8,10.4-8.4,17a15.7,15.7,0,0,0,13.1,22.6l18.9,1.3,1.2,18.8a15.5,15.5,0,0,0,7.8,12.6,15.8,15.8,0,0,0,14.8.5l17-8.4,10.5,15.8a15.7,15.7,0,0,0,26.1-.1l10.5-15.7,16.9,8.3a15.7,15.7,0,0,0,7,1.7,16.3,16.3,0,0,0,7.8-2.1,15.6,15.6,0,0,0,7.8-12.6l1.3-18.9,18.9-1.2a15.7,15.7,0,0,0,12.5-7.9,15.3,15.3,0,0,0,.5-14.7l-8.4-17,15.7-10.5a15.7,15.7,0,0,0,7-13.1A15.5,15.5,0,0,0,214.4,97.6Zm-31,25.2a8.9,8.9,0,0,0-3.8,5.5l-.5,2.5a9.2,9.2,0,0,0,.7,5.9l9.6,19.4-21.6,1.4a8.9,8.9,0,0,0-5.8,2.6l-1.9,1.9a9.7,9.7,0,0,0-2.6,5.8l-1.4,21.6-19.3-9.6a9,9,0,0,0-6.2-.7l-2.6.6a8.9,8.9,0,0,0-5.2,3.7l-12.1,18.1-12-18a9.1,9.1,0,0,0-5.3-3.7l-2.5-.7-2.2-.2a9,9,0,0,0-4,.9l-19.4,9.6-1.4-21.6a9.1,9.1,0,0,0-2.6-5.8l-1.8-1.8a9,9,0,0,0-5.8-2.7l-21.6-1.4,9.5-19.4a9.4,9.4,0,0,0,.7-6.2l-.6-2.5a9.3,9.3,0,0,0-3.8-5.3l-18-12,18-12a8.4,8.4,0,0,0,3.7-5.3l.6-2.5a8.8,8.8,0,0,0-.6-6.2L32,65.3l21.6-1.4a9.1,9.1,0,0,0,5.8-2.6l1.8-1.8a9.4,9.4,0,0,0,2.6-5.8l1.4-21.6,19.4,9.6a9.1,9.1,0,0,0,6.3.6l2.5-.7a8.9,8.9,0,0,0,5.2-3.7l12.1-18,12,18a9,9,0,0,0,5.2,3.7l2.5.6a8.6,8.6,0,0,0,6.3-.6L156.1,32l1.4,21.6a9.1,9.1,0,0,0,2.6,5.8l1.8,1.8a8.9,8.9,0,0,0,5.8,2.6l21.6,1.5-9.5,19.3a9.2,9.2,0,0,0-.8,5.9l.5,2.4a9.4,9.4,0,0,0,3.8,5.7l18.2,12.1Z"/><path class="cls-1" d="M147.3,75.5,96.1,126.8,74,104.6a9,9,0,0,0-12.7,0,9.1,9.1,0,0,0,0,12.8l28.4,28.5a9.2,9.2,0,0,0,12.8,0l57.6-57.6a9.1,9.1,0,0,0-12.8-12.8Z"/></g></svg>